<mxfile host="app.diagrams.net" modified="2024-03-29T18:41:09.728Z" agent="Mozilla/5.0 (X11; Linux x86_64) AppleWebKit/537.36 (KHTML, like Gecko) Chrome/123.0.0.0 Safari/537.36" version="24.2.1" etag="-5u2PqfYmGpaqAOp6e3s" type="github">
  <diagram name="Page-1" id="xXVm8cHWqQx3iXVscD5A">
    <mxGraphModel>
      <root>
        <mxCell id="0" />
        <mxCell id="1" parent="0" />
      </root>
    </mxGraphModel>
  </diagram>
</mxfile>
